<svg height="512pt" viewBox="0 -17 512 512" width="512pt" xmlns="http://www.w3.org/2000/svg"><path d="m488.183594 478.914062h-464.367188c-13.152344 0-23.816406-10.660156-23.816406-23.816406v-427.117187c0-15.453125 12.527344-27.980469 27.980469-27.980469h457.824219c14.464843 0 26.195312 11.730469 26.195312 26.199219v428.898437c0 13.15625-10.664062 23.816406-23.816406 23.816406zm0 0" fill="#f4f4f4"/><path d="m485.519531 0h-14.363281c2.847656 4.136719 4.519531 9.144531 4.519531 14.542969v449.828125c0 5.402344-1.671875 10.410156-4.519531 14.542968h17.027344c13.152344 0 23.816406-10.660156 23.816406-23.816406v-428.617187c0-14.625-11.855469-26.480469-26.480469-26.480469zm0 0" fill="#e8e8e8"/><path d="m0 92.164062h512v-67.628906c0-13.550781-10.984375-24.535156-24.535156-24.535156h-462.929688c-13.550781 0-24.535156 10.984375-24.535156 24.535156zm0 0" fill="#fa5d72"/><path d="m487.464844 0h-15.792969c.324219.746094.609375 1.511719.871094 2.285156 1.988281 3.644532 3.132812 7.816406 3.132812 12.257813v77.621093h36.324219v-67.628906c0-13.550781-10.984375-24.535156-24.535156-24.535156zm0 0" fill="#e35567"/><path d="m79.640625 46.082031c0 10.046875-8.140625 18.1875-18.1875 18.1875-10.042969 0-18.183594-8.140625-18.183594-18.1875 0-10.042969 8.140625-18.1875 18.183594-18.1875 10.046875 0 18.1875 8.144531 18.1875 18.1875zm0 0" fill="#279463"/><path d="m141.207031 46.082031c0 10.046875-8.144531 18.1875-18.1875 18.1875-10.046875 0-18.1875-8.140625-18.1875-18.1875 0-10.042969 8.140625-18.1875 18.1875-18.1875 10.042969 0 18.1875 8.144531 18.1875 18.1875zm0 0" fill="#f6d867"/><path d="m202.769531 46.082031c0 10.046875-8.144531 18.1875-18.1875 18.1875s-18.1875-8.140625-18.1875-18.1875c0-10.042969 8.144531-18.1875 18.1875-18.1875s18.1875 8.144531 18.1875 18.1875zm0 0" fill="#4c7eb0"/><g fill="#495663"><path d="m215.96875 199.972656c-1.980469 0-3.957031-.753906-5.464844-2.261718l-34.15625-34.15625c-3.015625-3.015626-3.015625-7.90625 0-10.925782 3.019532-3.019531 7.910156-3.015625 10.925782 0l34.15625 34.152344c3.019531 3.019531 3.019531 7.910156 0 10.929688-1.507813 1.507812-3.484376 2.261718-5.460938 2.261718zm0 0"/><path d="m296.214844 199.972656c-1.980469 0-3.957032-.753906-5.464844-2.261718-3.019531-3.019532-3.019531-7.910157 0-10.929688l34.152344-34.152344c3.019531-3.015625 7.910156-3.015625 10.929687 0 3.015625 3.015625 3.015625 7.90625 0 10.925782l-34.15625 34.15625c-1.507812 1.507812-3.484375 2.261718-5.460937 2.261718zm0 0"/><path d="m187.152344 297.996094c-.59375 0-1.199219-.070313-1.804688-.214844l-58.726562-14.058594c-3.0625-.734375-5.375-3.25-5.84375-6.367187l-6.3125-42.035157c-.636719-4.21875 2.273437-8.15625 6.492187-8.789062 4.222657-.628906 8.152344 2.273438 8.789063 6.492188l5.539062 36.882812 53.660156 12.847656c4.152344.992188 6.707032 5.164063 5.714844 9.3125-.847656 3.546875-4.015625 5.929688-7.507812 5.929688zm0 0"/><path d="m122.113281 419.660156c-.382812 0-.769531-.027344-1.15625-.085937-4.21875-.636719-7.128906-4.570313-6.492187-8.789063l6.3125-42.039062c.46875-3.113282 2.78125-5.632813 5.84375-6.363282l58.726562-14.0625c4.148438-.996093 8.320313 1.566407 9.3125 5.714844.992188 4.152344-1.5625 8.320313-5.714844 9.316406l-53.660156 12.84375-5.539062 36.882813c-.578125 3.832031-3.875 6.582031-7.632813 6.582031zm0 0"/><path d="m93.371094 361.246094c-1.976563 0-3.957032-.753906-5.464844-2.261719-3.015625-3.019531-3.015625-7.910156 0-10.929687l28.734375-28.730469c1.449219-1.449219 3.414063-2.265625 5.460937-2.265625h65.042969c4.269531 0 7.726563 3.460937 7.726563 7.726562 0 4.269532-3.457032 7.726563-7.726563 7.726563h-61.839843l-26.472657 26.472656c-1.507812 1.507813-3.484375 2.261719-5.460937 2.261719zm0 0"/><path d="m322.785156 297.996094c-3.492187 0-6.65625-2.382813-7.507812-5.929688-.992188-4.152344 1.566406-8.320312 5.714844-9.3125l53.664062-12.847656 5.539062-36.882812c.632813-4.21875 4.570313-7.128907 8.789063-6.492188 4.21875.632812 7.125 4.566406 6.492187 8.789062l-6.316406 42.035157c-.464844 3.113281-2.777344 5.632812-5.839844 6.367187l-58.726562 14.058594c-.605469.144531-1.210938.214844-1.808594.214844zm0 0"/><path d="m387.824219 419.660156c-3.757813 0-7.054688-2.75-7.628907-6.578125l-5.539062-36.882812-53.664062-12.847657c-4.148438-.996093-6.707032-5.164062-5.714844-9.3125.996094-4.152343 5.167968-6.710937 9.316406-5.714843l58.726562 14.058593c3.0625.734376 5.375 3.25 5.839844 6.367188l6.316406 42.035156c.632813 4.21875-2.273437 8.15625-6.492187 8.789063-.390625.058593-.777344.085937-1.160156.085937zm0 0"/><path d="m416.570312 361.246094c-1.976562 0-3.957031-.753906-5.464843-2.261719l-26.46875-26.472656h-61.84375c-4.269531 0-7.726563-3.457031-7.726563-7.726563 0-4.265625 3.457032-7.722656 7.726563-7.722656h65.042969c2.046874 0 4.011718.8125 5.464843 2.261719l28.730469 28.734375c3.019531 3.015625 3.019531 7.90625 0 10.925781-1.507812 1.507813-3.484375 2.261719-5.460938 2.261719zm0 0"/></g><path d="m197.617188 264.183594c-10.050782 0-18.195313 8.144531-18.195313 18.195312v63.871094c0 42.292969 34.285156 76.578125 76.578125 76.578125s76.578125-34.285156 76.578125-76.578125v-63.871094c0-10.050781-8.144531-18.195312-18.195313-18.195312zm0 0" fill="#fa5d72"/><path d="m314.382812 264.183594h-16.910156c2.5 3.34375 4 7.480468 4 11.976562v70.371094c0 33.664062-19.730468 62.695312-48.246094 76.230469.921876.03125 1.84375.066406 2.773438.066406 42.292969 0 76.578125-34.285156 76.578125-76.578125v-63.871094c0-10.050781-8.144531-18.195312-18.195313-18.195312zm0 0" fill="#e35567"/><path d="m332.578125 245.984375c0-42.292969-34.285156-76.578125-76.578125-76.578125s-76.578125 34.285156-76.578125 76.578125c0 10.050781 8.144531 18.199219 18.195313 18.199219h116.765624c10.050782 0 18.195313-8.148438 18.195313-18.199219zm0 0" fill="#fa96a3"/><path d="m291.390625 264.183594h22.992187c10.050782 0 18.195313-8.148438 18.195313-18.199219 0-42.292969-34.285156-76.578125-76.578125-76.578125-4.105469 0-8.132812.332031-12.0625.953125 32.964844 10.230469 56.910156 40.953125 56.910156 77.28125 0 7.046875-3.804687 13.195313-9.457031 16.542969zm0 0" fill="#d17e89"/><path d="m270.078125 53.808594h188.179687c4.269532 0 7.726563-3.457032 7.726563-7.726563 0-4.265625-3.460937-7.726562-7.726563-7.726562h-188.179687c-4.265625 0-7.726563 3.460937-7.726563 7.726562 0 4.269531 3.460938 7.726563 7.726563 7.726563zm0 0" fill="#495663"/></svg>