<svg id="Capa_1" enable-background="new 0 0 512 512" height="512" viewBox="0 0 512 512" width="512" xmlns="http://www.w3.org/2000/svg"><g><path d="m56.148 467.94-1.9-50.943c-.366-9.802-3.493-19.3-9.021-27.402l-33.509-49.107c-15.26-22.363-15.645-51.689-.977-74.445l54.507-84.586 40.982 124.877-15.153 161.75-30.752 3.452c-2.174.243-4.096-1.411-4.177-3.596z" fill="#f1d0a5"/><path d="m485.501 318.055h-394.391c-14.635 0-26.499-11.864-26.499-26.499v-262.922c0-14.635 11.864-26.499 26.499-26.499h394.391c14.635 0 26.499 11.864 26.499 26.499v262.923c0 14.634-11.864 26.498-26.499 26.498z" fill="#365e7d"/><path d="m485.501 2.135h-17.994c14.635 0 26.499 11.864 26.499 26.499v262.923c0 14.635-11.864 26.499-26.499 26.499h17.994c14.635 0 26.499-11.864 26.499-26.499v-262.923c0-14.635-11.864-26.499-26.499-26.499z" fill="#2b4d66"/><path d="m475.282 37.412h-362.718c-.794 0-1.441.684-1.441 1.524v242.319c0 .84.647 1.524 1.441 1.524h362.718c.795 0 1.442-.684 1.442-1.524v-242.319c0-.84-.647-1.524-1.442-1.524z" fill="#d3effb"/><path d="m475.282 37.412h-19.25c.795 0 1.442.684 1.442 1.524v242.319c0 .84-.647 1.524-1.442 1.524h19.25c.795 0 1.442-.684 1.442-1.524v-242.319c0-.84-.647-1.524-1.442-1.524z" fill="#b1e4f9"/><g><path d="m88.094 174.105c-4.268 0-7.726-3.459-7.726-7.726v-12.567c0-4.268 3.459-7.726 7.726-7.726s7.726 3.459 7.726 7.726v12.567c.001 4.268-3.458 7.726-7.726 7.726z" fill="#2b4d66"/></g><path d="m131.323 460.438.861-37.03c.149-6.43 1.305-12.797 3.426-18.87 5.957-17.057 2.583-35.986-8.899-49.936-2.417-2.937-2.795-7.052-.953-10.379l48.799-88.167c3.957-7.15 2.649-16.063-3.196-21.774-7.318-7.15-19.096-6.844-26.032.678l-81.174 88.028 5.341 61.347 21.58 83.749 36.894-3.996c1.875-.203 3.309-1.765 3.353-3.65z" fill="#f1d0a5"/><path d="m174.557 256.056c3.957-7.15 2.649-16.063-3.196-21.774-6.593-6.442-16.797-6.811-23.827-1.323.524.41 1.033.847 1.52 1.323 5.845 5.711 7.153 14.624 3.196 21.774l-48.799 88.167c-1.842 3.328-1.464 7.443.953 10.379 11.482 13.95 14.856 32.879 8.899 49.936-2.121 6.072-3.277 12.439-3.426 18.87l-.701 30.143c-.135 5.826-4.567 10.65-10.361 11.278l-5.932.642c-1.272.138-2.127 1.372-1.807 2.612l36.894-3.996c1.875-.203 3.31-1.764 3.354-3.65l.835-35.936c.157-6.771 1.195-13.523 3.435-19.915 5.98-17.07 2.61-36.021-8.882-49.984-2.417-2.937-2.795-7.052-.953-10.379z" fill="#f1b986"/><path d="m435.715 213.759h-247.441c-6.321 0-11.446-5.124-11.446-11.446v-111.684c0-6.321 5.124-11.446 11.446-11.446h247.442c6.321 0 11.446 5.124 11.446 11.446v111.684c-.001 6.321-5.125 11.446-11.447 11.446z" fill="#ffc250"/><path d="m435.715 79.183h-24.083c6.321 0 11.446 5.124 11.446 11.446v111.684c0 6.321-5.125 11.446-11.446 11.446h24.083c6.321 0 11.446-5.124 11.446-11.446v-111.684c0-6.321-5.124-11.446-11.446-11.446z" fill="#ebb044"/><g><g><path d="m373.22 182.124c-7.237 0-14.047-2.934-18.683-8.049-2.866-3.162-2.626-8.048.535-10.913 3.162-2.866 8.048-2.626 10.913.535.633.698 3.024 2.975 7.234 2.975 2.184 0 3.234-1.139 3.434-1.594-.222-.312-1.024-1.045-2.879-1.73-5.86-2.162-11.071-4.481-11.291-4.578-.373-.166-.731-.361-1.073-.585-4.936-3.218-7.478-8.857-6.637-14.716.885-6.165 5.344-11.173 11.637-13.068 10.96-3.298 21.805 3.364 23.005 4.135 3.591 2.306 4.632 7.087 2.326 10.676-2.3 3.581-7.059 4.625-10.644 2.346-1.536-.956-6.687-3.432-10.229-2.361-.186.055-.332.117-.445.175 1.898.812 5.207 2.191 8.699 3.48 6.985 2.576 14.523 9.058 12.775 18.847-1.492 8.357-9.347 14.425-18.677 14.425z" fill="#f6f1f1"/></g><g><path d="m256.343 179.895c-13.503 0-24.489-10.986-24.489-24.49 0-13.503 10.986-24.489 24.489-24.489 13.504 0 24.49 10.986 24.49 24.489 0 13.504-10.986 24.49-24.49 24.49zm0-33.526c-4.983 0-9.036 4.053-9.036 9.036s4.053 9.037 9.036 9.037 9.037-4.054 9.037-9.037-4.054-9.036-9.037-9.036z" fill="#f6f1f1"/></g><g><path d="m273.106 182.124c-4.268 0-7.726-3.459-7.726-7.726v-37.984c0-4.268 3.459-7.726 7.726-7.726s7.726 3.459 7.726 7.726v37.984c.001 4.267-3.458 7.726-7.726 7.726z" fill="#f6f1f1"/></g><g><g><path d="m335.768 182.124c-4.268 0-7.726-3.459-7.726-7.726v-55.853c0-4.268 3.459-7.726 7.726-7.726s7.726 3.459 7.726 7.726v55.853c.001 4.267-3.458 7.726-7.726 7.726z" fill="#f6f1f1"/></g></g><g><path d="m317.04 182.124c-14.588 0-26.455-11.867-26.455-26.455s11.867-26.455 26.455-26.455 26.455 11.867 26.455 26.455c0 14.587-11.867 26.455-26.455 26.455zm0-37.457c-6.066 0-11.002 4.936-11.002 11.002s4.936 11.002 11.002 11.002 11.002-4.936 11.002-11.002c0-6.067-4.936-11.002-11.002-11.002z" fill="#f6f1f1"/></g></g><path d="m434.279 509.865c2.076 0 3.759-1.683 3.759-3.759v-45.364c0-6.785 1.872-13.409 5.369-18.995l15.343-24.509c7.116-11.367 8.713-25.859 4.272-38.772l-7.268-21.132-14.048-29.754h-103.824l-23.853 29.754-35.703-17.383c-6.48-3.155-14.056-1.556-19.019 4.013-6.581 7.385-6.484 19.248.216 26.502l46.287 50.113c5.257 5.692 8.219 13.472 8.219 21.593v63.933c0 2.076 1.683 3.759 3.759 3.759h116.491z" fill="#f1d0a5"/><path d="m463.023 378.466s-7.268-21.132-7.268-21.132l-14.048-29.754s-16.335-.574-16.335-.574l12.667 30.329 5.678 21.132c4.441 12.913 2.845 27.405-4.271 38.772l-15.344 24.509c-3.496 5.585-5.369 12.21-5.369 18.995v49.123h15.547c2.076 0 3.759-1.683 3.759-3.759v-45.364c0-6.785 1.873-13.41 5.369-18.995l15.343-24.509c7.116-11.368 8.713-25.86 4.272-38.773z" fill="#f1b986"/><g fill="#f1d0a5"><path d="m349.461 357.334v-132.192c0-10.779-7.932-19.518-17.716-19.518-9.784 0-17.716 8.738-17.716 19.518v132.192z"/><path d="m384.892 357.334v-57.144c0-6.54-5.944-11.842-13.277-11.842h-8.877c-7.333 0-13.277 5.302-13.277 11.842v57.144z"/><path d="m420.323 357.334v-57.144c0-6.54-5.944-11.842-13.277-11.842h-8.877c-7.333 0-13.277 5.302-13.277 11.842v57.144z"/><path d="m455.754 357.334v-57.144c0-6.54-5.944-11.842-13.277-11.842h-8.877c-7.333 0-13.277 5.302-13.277 11.842v57.144z"/></g><path d="m442.477 288.347h-8.877c-1.552 0-3.035.25-4.419.686 5.157 1.626 8.858 6 8.858 11.156v57.144h17.716v-57.144c0-6.54-5.945-11.842-13.278-11.842z" fill="#f1b986"/><g><path d="m349.461 365.06c-4.268 0-7.726-3.459-7.726-7.726v-57.145c0-4.268 3.459-7.726 7.726-7.726s7.726 3.459 7.726 7.726v57.145c0 4.268-3.459 7.726-7.726 7.726z" fill="#f1b986"/></g><g><path d="m384.892 365.06c-4.268 0-7.726-3.459-7.726-7.726v-57.145c0-4.268 3.459-7.726 7.726-7.726s7.726 3.459 7.726 7.726v57.145c.001 4.268-3.458 7.726-7.726 7.726z" fill="#f1b986"/></g><g><path d="m420.323 365.06c-4.268 0-7.726-3.459-7.726-7.726v-57.145c0-4.268 3.459-7.726 7.726-7.726s7.726 3.459 7.726 7.726v57.145c0 4.268-3.459 7.726-7.726 7.726z" fill="#f1b986"/></g></g></svg>